<?xml version="1.0" standalone="no"?>
<!DOCTYPE svg PUBLIC "-//W3C//DTD SVG 20010904//EN"
 "http://www.w3.org/TR/2001/REC-SVG-20010904/DTD/svg10.dtd">
<svg version="1.0" xmlns="http://www.w3.org/2000/svg"
 width="32.000000pt" height="32.000000pt" viewBox="0 0 32.000000 32.000000"
 preserveAspectRatio="xMidYMid meet">

<g transform="translate(0.000000,24.000000) scale(0.100000,-0.100000)"
fill="#000000" stroke="none">
<path d="M2 118 c2 -109 2 -110 5 -26 l4 87 77 4 77 3 -77 2 c-67 2 -78 4 -78
20 0 14 2 15 10 2 8 -12 11 -13 19 -1 7 11 9 11 14 0 5 -12 7 -12 15 0 8 11
11 11 16 0 5 -11 7 -11 12 -1 9 18 134 17 134 -2 0 -8 -12 -17 -27 -19 l-28
-4 26 -2 c22 -1 26 -5 21 -26 -6 -34 -48 -35 -55 -2 -5 19 -5 19 -4 -3 2 -21
7 -25 35 -25 23 0 31 -4 27 -13 -3 -8 -5 -20 -5 -27 0 -9 -15 -15 -42 -18 -42
-4 -42 -4 5 -3 26 1 47 -3 47 -9 0 -6 -28 -9 -70 -7 -38 2 -70 0 -70 -5 0 -4
28 -6 62 -5 50 3 64 1 75 -14 11 -15 13 -1 13 94 l0 112 -120 0 -120 0 2 -112z"/>
<path d="M148 203 c12 -2 32 -2 45 0 12 2 2 4 -23 4 -25 0 -35 -2 -22 -4z"/>
<path d="M28 163 c6 -2 18 -2 25 0 6 3 1 5 -13 5 -14 0 -19 -2 -12 -5z"/>
<path d="M91 148 c-1 -25 2 -28 32 -27 29 2 29 2 5 6 -18 3 -28 12 -31 26 -4
18 -5 17 -6 -5z"/>
<path d="M28 143 c6 -2 18 -2 25 0 6 3 1 5 -13 5 -14 0 -19 -2 -12 -5z"/>
<path d="M28 123 c6 -2 18 -2 25 0 6 3 1 5 -13 5 -14 0 -19 -2 -12 -5z"/>
<path d="M90 85 c0 -14 4 -25 9 -25 4 0 6 11 3 25 -2 14 -6 25 -8 25 -2 0 -4
-11 -4 -25z"/>
</g>
</svg>
